<svg width="96" height="101" viewBox="0 0 96 101" fill="none" xmlns="http://www.w3.org/2000/svg">
<path d="M22.3943 94.5269C23.329 94.5057 26.6929 93.7491 28.691 93.1165C32.7468 91.8362 35.6683 90.0699 37.5537 87.7547C38.6345 86.4164 40.2391 83.4499 40.7272 81.856C41.1803 80.4231 41.9977 78.353 42.1451 78.2586C42.1943 78.2272 42.2124 78.2733 42.1949 78.3538C42.1101 78.7428 41.7498 85.8305 41.7343 87.2603C41.7173 90.5727 42.1551 92.5088 43.3031 94.2905C44.8799 96.7558 47.5019 98.2403 52.5408 99.5629C55.7675 100.406 57.8312 100.378 60.3656 99.4831C63.0685 98.5263 67.3375 95.6203 70.5618 92.5289C73.4679 89.7335 74.7762 88.8382 78.3435 87.2126C83.1818 84.9927 84.8972 83.6522 86.3597 80.9498C87.6579 78.5488 88.0928 76.7466 87.9193 74.5027C87.5927 69.9211 86.3404 66.9364 83.9371 64.9656C82.1066 63.4708 80.9255 62.8762 75.3728 60.6127C71.4857 59.0245 70.6538 58.6819 70.455 58.5464C70.4088 58.5149 70.4001 58.4594 70.4535 58.4431C70.6817 58.3732 71.5357 58.3065 72.7811 58.2776C73.2918 58.2624 74.7232 58.4197 75.9592 58.6327C78.1083 58.9885 78.2891 58.9998 79.9965 58.7957C83.0428 58.4617 84.9216 57.8593 86.9031 56.5908C90.0176 54.5855 92.296 51.3723 94.3255 46.0675C95.147 43.9139 95.213 43.3522 94.8144 41.8181C94.3806 40.1218 93.7112 38.7956 92.0946 36.4482C89.6554 32.8957 89.1516 31.8445 87.7815 27.3307C86.357 22.6785 85.4307 20.7203 83.8534 19.098C82.5868 17.7963 80.5603 16.5539 78.2414 15.6834C76.5614 15.0504 73.378 14.5255 71.7642 14.6235C66.3014 14.9229 61.1774 18.584 57.4769 24.8316C56.7243 26.0868 55.9863 27.5981 55.1771 29.5014C55.1388 29.592 55.0025 29.5463 55.0266 29.4509L55.2752 28.4689C56.2426 24.6751 56.8284 19.4632 56.6092 16.3944C56.1682 10.0736 53.7621 5.33407 48.7443 0.938857C47.4081 -0.237477 46.0861 -0.314712 45.3446 0.760254C44.7113 1.66207 45.1935 3.20037 47.1841 6.6129C48.7832 9.36404 49.1512 10.1327 50.0695 12.9042C51.2739 16.4967 51.4713 18.1135 51.0243 20.8123C50.728 22.5604 49.5383 26.7273 49.35 26.6863C49.2827 26.6716 49.261 26.5124 49.302 26.3246C49.4189 25.788 49.244 22.3214 49.0455 21.0978C48.3949 17.1622 46.7214 13.5237 44.4052 11.0238C41.673 8.03986 37.7998 6.28272 33.5443 6.08629C27.9639 5.82605 25.8132 7.02963 20.2813 13.4684C17.032 17.2569 15.7202 18.3622 12.6454 19.9265C11.172 20.6734 10.5562 21.1715 9.51986 22.4352C7.60632 24.8145 5.83411 29.2621 5.50359 32.5905C5.07089 37.0348 6.00441 40.1889 8.38139 42.2805C10.6893 44.3009 15.1223 46.0113 22.1846 47.6201C24.2776 48.1042 24.2209 48.1059 20.5907 47.8209C9.22039 46.9035 3.72831 50.1191 1.34734 59.0429C0.603763 61.8738 0.151662 65.6956 0.342115 67.7324C0.547225 70.0253 1.48984 71.6498 4.2255 74.4237C8.67944 78.949 9.26277 79.7646 11.02 83.7305C13.5626 89.5256 14.3993 90.8601 16.4182 92.3959C17.0956 92.9088 17.6794 93.2046 19.0214 93.7078C20.9887 94.4455 21.4163 94.5527 22.3943 94.5269Z" fill="#228C22"/>
</svg>
